<?xml version="1.0" standalone="no"?>
<!DOCTYPE svg PUBLIC "-//W3C//DTD SVG 20010904//EN"
 "http://www.w3.org/TR/2001/REC-SVG-20010904/DTD/svg10.dtd">
<svg version="1.0" xmlns="http://www.w3.org/2000/svg"
 width="1024.000000pt" height="1024.000000pt" viewBox="0 0 1024.000000 1024.000000"
 preserveAspectRatio="xMidYMid meet">
<metadata>
Created by listingslab 2018
</metadata>
<g transform="translate(0.000000,1024.000000) scale(0.100000,-0.100000)"
fill="#FFF" stroke="none">
<path d="M2200 8147 c0 -308 3 -416 12 -425 9 -9 114 -12 410 -12 l398 0 1
-387 c0 -214 2 -398 5 -410 2 -12 -3 -29 -12 -37 -13 -14 -63 -16 -377 -16
l-362 0 -25 30 c-50 61 -50 61 -50 -380 l0 -410 -412 -2 -413 -3 -3 -410 -2
-410 -391 3 c-283 2 -395 -1 -405 -9 -12 -10 -14 -210 -14 -1255 l0 -1244 425
0 c304 0 425 3 425 11 0 7 -10 9 -26 5 -21 -6 -25 -4 -21 8 3 8 -1 20 -9 26
-12 11 -14 127 -14 804 0 435 4 797 9 804 5 9 17 11 37 5 16 -4 207 -9 424
-10 l395 -3 -3 -825 -2 -825 412 0 413 0 -3 -407 c-2 -320 0 -408 10 -415 19
-12 1668 -10 1668 2 0 6 -8 10 -19 10 -10 0 -22 10 -27 23 -5 12 -11 186 -14
387 l-5 365 -764 2 c-780 3 -830 5 -817 40 6 16 -10 27 -19 13 -10 -15 -28
-12 -22 4 3 8 -1 20 -9 26 -12 11 -14 73 -14 389 0 207 4 381 8 386 5 7 706 9
2080 7 l2072 -2 0 -399 c0 -220 3 -406 6 -415 5 -13 55 -15 399 -16 383 0 393
0 398 19 3 11 -1 25 -9 32 -12 10 -14 136 -14 793 0 429 3 791 6 803 4 16 13
22 29 21 15 -2 21 -7 18 -19 -3 -9 0 -19 5 -23 5 -3 9 0 8 7 0 6 2 13 7 15 4
1 183 2 397 2 l390 0 0 -825 0 -825 425 0 c295 0 425 3 425 11 0 6 -9 8 -22 4
-16 -6 -20 -4 -15 8 3 9 -1 21 -9 27 -12 11 -14 182 -16 1199 l-3 1186 -391 5
c-311 4 -394 8 -407 19 -15 12 -17 53 -17 402 0 213 -4 390 -9 393 -5 3 -173
6 -375 6 -234 1 -377 5 -396 12 -18 6 -35 21 -41 35 -5 13 -9 194 -9 403 l0
379 -396 3 c-378 3 -396 4 -410 22 -11 16 -14 89 -14 408 l0 388 -57 2 c-32 1
-195 2 -362 3 -221 1 -306 5 -309 13 -2 7 -10 12 -18 12 -17 0 -19 17 -1 23 6
3 2 6 -10 6 -13 1 -23 -5 -23 -11 -1 -7 0 -192 0 -410 0 -259 -3 -398 -9 -398
-6 0 -8 -6 -5 -14 3 -7 -2 -21 -11 -30 -15 -15 -121 -16 -1223 -16 -953 0
-1212 3 -1232 13 l-25 13 -3 388 c-1 226 -6 394 -12 401 -6 8 -111 11 -362 12
-324 1 -353 3 -365 19 -7 10 -16 15 -19 11 -4 -3 -21 10 -38 29 l-31 35 -5
362 -5 362 -358 3 c-306 2 -359 4 -363 17 -4 8 -12 15 -20 15 -8 0 -14 5 -14
10 0 6 -7 10 -15 10 -13 0 -15 -53 -15 -413z m854 -2072 c5 -13 58 -15 398
-15 l393 0 0 -390 0 -390 -382 0 c-249 0 -383 -4 -383 -10 0 -6 125 -10 354
-10 194 0 367 -3 384 -6 27 -6 30 -9 21 -25 -9 -18 -28 -19 -408 -19 -392 0
-398 0 -417 21 -18 20 -19 44 -22 426 -2 295 0 409 9 419 15 18 45 18 53 -1z
m3296 0 c0 -13 51 -15 400 -15 l400 0 0 -402 c0 -313 -3 -399 -12 -390 -15 15
-753 17 -763 2 -3 -5 0 -10 7 -10 7 0 180 -1 385 -3 204 -1 374 -5 377 -8 4
-3 4 -14 0 -23 -6 -14 -45 -16 -412 -16 -363 0 -407 2 -424 17 -17 15 -18 42
-18 433 0 229 3 420 7 423 13 13 53 7 53 -8z m-4152 -15 c-7 -11 -26 -22 -43
-26 -16 -3 -182 -4 -367 -2 -335 3 -338 3 -360 26 l-22 22 402 0 c400 0 402 0
390 -20z m-850 -806 c27 -6 30 -9 21 -25 -9 -18 -28 -19 -380 -19 -319 0 -370
2 -375 15 -4 8 -14 15 -23 16 -9 1 -6 4 9 9 29 9 703 13 748 4z"/>
<path d="M7150 8155 c0 -379 -1 -405 -17 -406 -14 0 -13 -3 5 -11 12 -6 22
-15 22 -20 0 -4 186 -8 414 -8 368 0 415 2 420 16 9 24 8 27 -10 20 -10 -4
-23 3 -35 16 -17 22 -18 46 -19 386 l0 362 -360 0 c-311 0 -361 2 -366 15 -4
8 -13 15 -21 15 -8 0 -11 5 -8 10 3 6 -1 10 -9 10 -14 0 -16 -45 -16 -405z"/>
<path d="M8845 5270 c-4 -6 119 -10 342 -12 372 -3 413 -2 413 13 0 13 -747
12 -755 -1z"/>
<path d="M5500 2365 l0 -425 832 2 c824 3 833 3 836 23 3 16 1 17 -7 5 -9 -13
-13 -11 -28 10 -16 23 -18 61 -23 390 l-5 365 -768 3 c-668 2 -771 4 -784 17
-8 8 -19 13 -24 10 -5 -4 -9 -2 -9 4 0 5 6 12 13 14 6 3 2 6 -10 6 l-23 1 0
-425z"/>
</g>
</svg>
